<svg width="381" height="272" viewBox="0 0 381 272" fill="none" xmlns="http://www.w3.org/2000/svg">
<path d="M348.312 201.625C367.562 201.625 380.375 213.625 380.375 233.125V239.625C380.375 260 367.562 271.625 348.312 271.625C329 271.625 316.188 260 316.188 239.688V233.25C316.188 213.625 329 201.625 348.312 201.625ZM348.312 216.625C341.188 216.625 336.875 222.688 336.875 233.125V240.062C336.875 250.5 341.188 256.625 348.312 256.625C355.5 256.625 359.625 250.5 359.625 240.062V233.125C359.625 222.688 355.5 216.625 348.312 216.625Z" fill="black"/>
<path d="M258.375 259.875C258.375 266.625 254.938 270.625 248.875 270.625C242.812 270.625 239.25 266.562 239.25 259.875V196.188C239.25 188.188 242.688 184.062 249.5 184.062C254.062 184.062 256.688 186.312 260.812 192.312L289.562 235.188H290.375V194.812C290.375 188.062 293.875 184.062 299.875 184.062C305.938 184.062 309.562 188.062 309.562 194.812V259.125C309.562 266.625 306.188 270.625 299.875 270.625C295.25 270.625 292.438 268.688 288.188 262.438L259.188 219H258.375V259.875Z" fill="black"/>
<path d="M149.875 255.625L139.562 216.625C139.062 214.312 138.875 213.188 138.875 212.188C138.875 206.625 142.875 202.812 148.875 202.812C154.062 202.812 157.438 206.125 158.375 212.125L165.25 250.5H166.125L174.812 213.75C176.5 206.25 180.062 202.812 186.312 202.812C192.688 202.812 196.5 206.375 198.188 213.75L206.938 250.5H207.875L215.188 212.375C216.25 206.312 219.75 202.812 224.75 202.812C230.812 202.812 234.688 206.562 234.688 211.938C234.688 213.062 234.312 214.812 233.812 216.875L223 255.625C220 266.5 215.875 270.625 208.875 270.625C201.375 270.625 197.25 266.625 194.688 255.625L186.75 224.875H186L178.25 255.625C175.688 266.625 171.75 270.625 164.125 270.625C156.938 270.625 152.562 266.25 149.875 255.625Z" fill="black"/>
<path d="M115.25 261.812C112.125 267.438 105.625 270.75 97.6875 270.75C84.625 270.75 75.8125 262.625 75.8125 250.562C75.8125 238.125 85.125 230.5 100.562 230.438H115.312V225.625C115.312 220 111.625 217 105.25 217C100.625 217 97.25 218.875 93.6875 221.438C91.625 222.75 89.5625 223.5 86.4375 223.5C82.125 223.5 79.5 220.625 79.5 216.75C79.5 212.688 82.25 208.625 88.4375 205.688C92.875 203.562 98.8125 202.25 106.562 202.25C124.938 202.25 135.375 210.812 135.375 225.875V260C135.375 266.875 131.875 270.625 125.625 270.625C120.5 270.625 117 267.938 116.188 263.125V261.812H115.25ZM95.5625 249.125C95.5625 253.812 99.375 257.062 104.812 257.062C110.688 257.062 115.312 253.125 115.312 248.062V241.562H105.062C99.1875 241.562 95.5625 244.438 95.5625 249.125Z" fill="black"/>
<path d="M19.125 259.875C19.125 266.625 15.6875 270.625 9.625 270.625C3.5625 270.625 0 266.562 0 259.875V196.188C0 188.188 3.4375 184.062 10.25 184.062C14.8125 184.062 17.4375 186.312 21.5625 192.312L50.3125 235.188H51.125V194.812C51.125 188.062 54.625 184.062 60.625 184.062C66.6875 184.062 70.3125 188.062 70.3125 194.812V259.125C70.3125 266.625 66.9375 270.625 60.625 270.625C56 270.625 53.1875 268.688 48.9375 262.438L19.9375 219H19.125V259.875Z" fill="black"/>
<path d="M120 50.8214C120 35.4824 120 27.813 122.985 21.9543C125.611 16.8009 129.801 12.611 134.954 9.98515C140.813 7 148.482 7 163.821 7H200.179C215.518 7 223.187 7 229.046 9.98515C234.199 12.611 238.389 16.8009 241.015 21.9543C244 27.813 244 35.4824 244 50.8214V87.1786C244 102.518 244 110.187 241.015 116.046C238.389 121.199 234.199 125.389 229.046 128.015C223.187 131 215.518 131 200.179 131H163.821C148.482 131 140.813 131 134.954 128.015C129.801 125.389 125.611 121.199 122.985 116.046C120 110.187 120 102.518 120 87.1786V50.8214Z" stroke="black" stroke-width="14"/>
<circle cx="182" cy="68.9997" r="39.8571" stroke="black" stroke-width="14"/>
</svg>
